<?xml version="1.0" encoding="utf-8"?>
<!-- Uploaded to: SVG Repo, www.svgrepo.com, Generator: SVG Repo Mixer Tools -->
<svg width="800px" height="800px" viewBox="0 0 1024 1024" class="icon"  version="1.1" xmlns="http://www.w3.org/2000/svg"><path d="M689.92 203.52a53.76 53.76 0 0 1 53.632 49.92l0.128 3.84v187.6736a26.88 26.88 0 0 1-53.6064 2.9184l-0.1536-2.9184V257.28h-432.64v509.44h189.2864a26.88 26.88 0 0 1 2.944 53.6064l-2.944 0.1536H257.28a53.76 53.76 0 0 1-53.632-49.92l-0.128-3.84v-509.44A53.76 53.76 0 0 1 253.44 203.648l3.84-0.128h432.64z" fill="#EF8919" /><path d="M512 344.32v53.76h-179.2v-53.76z" fill="#F6C37B" /><path d="M614.4 486.4c-111.9488 0-204.8 72.96-204.8 166.4s92.8512 166.4 204.8 166.4 204.8-72.96 204.8-166.4-92.8512-166.4-204.8-166.4z m0 51.2c86.016 0 153.6 53.12 153.6 115.2S700.416 768 614.4 768s-153.6-53.12-153.6-115.2 67.584-115.2 153.6-115.2z" fill="#BA42D6" /><path d="M627.2 563.2a89.6 89.6 0 1 0 0 179.2 89.6 89.6 0 0 0 0-179.2z m0 51.2a38.4 38.4 0 1 1 0 76.8 38.4 38.4 0 0 1 0-76.8z" fill="#BA42D6" /><path d="M435.2 446.72v53.76h-102.4v-53.76z" fill="#F6C37B" /><path d="M669.3376 592.5376a12.8 12.8 0 0 1 19.584 16.3328l-1.4592 1.792-51.1488 51.1232a12.8 12.8 0 0 1-19.584-16.3328l1.4848-1.792 51.1232-51.1232z" fill="#BA42D6" /></svg>